<?xml version="1.0" encoding="UTF-8"?>
<svg id="Layer_1" xmlns="http://www.w3.org/2000/svg" version="1.1" viewBox="0 0 360 360">
  <!-- Generator: Adobe Illustrator 29.5.1, SVG Export Plug-In . SVG Version: 2.1.0 Build 141)  -->
  <defs>
    <style>
      .st0 {
        fill: #d8dfe1;
      }

      .st1 {
        fill: #2b5272;
      }

      .st2 {
        fill: #fff;
      }

      .st3 {
        fill: #b36b29;
      }
    </style>
  </defs>
  <path class="st3" d="M54.2,302.7v-161.5c0-51.8,32.9-98.1,81.8-115.2,13-4.5,26.5-6.8,40.3-6.8s26.4,2.1,39,6.4l2.7.9c49.7,16.7,83.1,63.2,83.1,115.7v160.2l-123.4,40.8-123.4-40.4Z"/>
  <path class="st1" d="M177.6,322.6l-103.9-34v-147.4c0-43.5,27.6-82.4,68.7-96.8,10.9-3.8,22.3-5.7,33.8-5.7s22.2,1.8,32.7,5.4l2.7.9c41.7,14.1,69.8,53.1,69.8,97.2v146.1l-103.9,34.3Z"/>
  <g>
    <path class="st2" d="M177.2,157.6c-28.7,0-46.8,3.7-53.5,5.3l5.3,6.2,2.7-.8c.6-.2,16-4.4,45.5-4.4s44.8,4.3,45.5,4.4l2.7.8,5.3-6.2c-6.7-1.6-24.8-5.3-53.5-5.3Z"/>
    <path class="st2" d="M177.2,151.5c27.8,0,45.6,3.3,53.6,5.1v-31.5h0v-17.7c-2.2-.6-9.6-2.3-21.4-3.7v15.5c-5.8-.7-12.8-1.3-20.7-1.6v-15.5c-1.3,0-3.3,0-4.7-.1h-13.5c-1.3,0-3.4,0-4.7.1v15.5c-8,.3-14.9.9-20.7,1.6v-15.5c-11.8,1.4-19.2,3.1-21.4,3.7v15.6s0,0,0,0v33.5c7.9-1.9,25.8-5.1,53.6-5.1Z"/>
  </g>
  <path class="st2" d="M167.1,273.7c.6-3-.5-6-2.9-7.8-5.2-4-8.6-10.4-8.6-17.5,0-12.2,9.9-22.1,22.1-22.1s22.1,9.9,22.1,22.1-3.4,13.5-8.6,17.5c-2.4,1.8-3.6,4.9-2.9,7.8l8.2,37.5,38.1-12.6-13.5-124.2s-14.8-4.2-43.8-4.2-43.8,4.2-43.8,4.2l-13.5,124.1,38.9,12.7,8.2-37.6Z"/>
  <polygon class="st0" points="276.5 215 265.2 212.2 265.2 232.2 244.6 227.2 244.6 207.2 230.4 203.8 240.5 296.6 276.5 284.7 276.5 215"/>
  <polygon class="st0" points="124 204 110.7 207.2 110.6 227.2 90 232.2 90 212.2 78.7 215 78.7 285 113.9 296.5 124 204"/>
  <g>
    <path class="st3" d="M180.1,50.5s.3,0-3.8,0-8.4,1.9-12.7,9.7c-4.3,7.8-11,2.8-12.1,14.6,4-9.3,12.9-2.6,16.1-8.1s12.5-4.1,12.5-4.1v-12.2Z"/>
    <path class="st2" d="M178.6,67.1s-1.1-.4-2.6-.4-1.2,0-1.7.2v29.9h5.8v-29.4c-.5,0-1,0-1.5-.3Z"/>
  </g>
  <path class="st2" d="M214,38l-2.7-.9c-23-7.8-48.4-7.6-71.4.4-44.1,15.4-73.7,57.1-73.7,103.8v152.7l111.3,36.4,111.3-36.8v-151.4c0-47.2-30.1-89.1-74.8-104.2ZM281.5,288.2l-103.9,34.3-103.9-34v-147.4c0-43.5,27.6-82.4,68.7-96.8,10.9-3.8,22.3-5.7,33.8-5.7s22.2,1.8,32.7,5.4l2.7.9c41.7,14.1,69.8,53.1,69.8,97.2v146.1Z"/>
</svg>